HIERARCHY
ROOT Hips
{
  OFFSET 155.048 98.1286 3.93448
  CHANNELS 6 Xposition Yposition Zposition Zrotation Xrotation Yrotation
  JOINT RightUpLeg
  {
    OFFSET -8.9458 -8.66707 0.101652
    CHANNELS 3 Zrotation Xrotation Yrotation
    JOINT RightLeg
    {
      OFFSET 0 -44.4227 1.3727
      CHANNELS 3 Zrotation Xrotation Yrotation
      JOINT RightFoot
      {
        OFFSET 0.253549 -42.0924 -1.46059
        CHANNELS 3 Zrotation Xrotation Yrotation
        JOINT RightToes
        {
          OFFSET 0.04 -4.41509 8.4991
          CHANNELS 3 Zrotation Xrotation Yrotation
          End Site
          {
            OFFSET -0.08 -0.137448 9.77979
          }
        }
      }
    }
  }
  JOINT Spine
  {
    OFFSET 0 11.8905 0
    CHANNELS 3 Zrotation Xrotation Yrotation
    JOINT Spine1
    {
      OFFSET 0 25.6574 0.127663
      CHANNELS 3 Zrotation Xrotation Yrotation
      JOINT Head
      {
        OFFSET 0 8.73416 0.011341
        CHANNELS 3 Zrotation Xrotation Yrotation
        End Site
        {
          OFFSET -0.29 12.7742 2.51395
        }
      }
      JOINT LeftShoulder1
      {
        OFFSET 8.99 -0.362252 -0.22
        CHANNELS 3 Zrotation Xrotation Yrotation
        JOINT LeftArm
        {
          OFFSET 10.2827 -0.00337999 0.322123
          CHANNELS 3 Zrotation Xrotation Yrotation
          JOINT LeftForeArm
          {
            OFFSET 26.2597 0.099144 -1.42434
            CHANNELS 3 Zrotation Xrotation Yrotation
            JOINT LeftHand
            {
              OFFSET 22.0902 0.085362 1.02216
              CHANNELS 3 Zrotation Xrotation Yrotation
              End Site
              {
                OFFSET 13.419 -0.6 1.50291
              }
            }
          }
        }
      }
      JOINT RightShoulder
      {
        OFFSET -8.99 -0.362252 -0.22
        CHANNELS 3 Zrotation Xrotation Yrotation
        JOINT RightArm
        {
          OFFSET -10.2827 -0.00338 0.322123
          CHANNELS 3 Zrotation Xrotation Yrotation
          JOINT RightForeArm
          {
            OFFSET -26.364 0.099144 -1.42434
            CHANNELS 3 Zrotation Xrotation Yrotation
            JOINT RightHand
            {
              OFFSET -22.0324 0.085362 1.02216
              CHANNELS 3 Zrotation Xrotation Yrotation
              End Site
              {
                OFFSET -13.3284 -0.6 1.50291
              }
            }
          }
        }
      }
    }
  }
  JOINT LeftUpLeg
  {
    OFFSET 8.9458 -8.66707 0.101652
    CHANNELS 3 Zrotation Xrotation Yrotation
    JOINT LeftLeg
    {
      OFFSET 0 -44.4227 1.3727
      CHANNELS 3 Zrotation Xrotation Yrotation
      JOINT LeftFoot
      {
        OFFSET -0.253549 -42.0924 -1.46059
        CHANNELS 3 Zrotation Xrotation Yrotation
        JOINT LeftToes
        {
          OFFSET -0.04 -4.41509 8.4991
          CHANNELS 3 Zrotation Xrotation Yrotation
          End Site
          {
            OFFSET 0.08 -0.047448 9.77979
          }
        }
      }
    }
  }
}
MOTION
Frames:	12
Frame Time:	0.0333333
5.2634 99.3072 8.94957 -5.31108 1.96282 -90.3394 -0.522509 -37.0134 2.34249 -0.829048 35.7686 -10.5233 8.6173 -7.50633 -0.182637 0.0462048 0.000530889 0.662642 1.96723 7.48169 -1.89801 -0.579179 7.40919 -1.51898 3.38528 1.52762 -0.58965 -34.4705 7.51252 -14.897 -42.0522 -16.2227 -25.9666 -11.2909 15.6145 -46.6666 19.9738 8.8262 -1.00641 45.2112 10.9847 17.08 19.8822 -46.2355 -12.0821 6.59149 29.6455 5.79333 -4.35887 9.62597 3.53296 -3.33618 6.89576 4.92111 2.12824 21.6884 10.7847 -0.611196 -18.994 0.0321747 -1.33188e-009 8.75217e-006 -1.45022e-008 
1.43702 96.8324 8.40867 -7.89121 0.763106 -90.0037 -0.703016 -34.578 4.99004 -0.801668 30.838 -10.7167 8.94915 -7.04872 -0.215418 0.0462048 0.000530889 0.662642 -1.4737 9.75218 -0.959091 1.57863 7.4758 -1.31032 3.84194 0.240186 -1.14932 -33.8775 7.39593 -14.884 -43.7774 -16.1531 -29.6736 -10.1113 16.7761 -47.7778 20.5647 8.72819 -1.38024 44.7091 10.8806 17.0997 19.897 -46.1547 -11.3287 6.67208 29.8044 5.71949 -5.27565 9.54411 3.84849 -4.39165 11.9419 6.18519 2.19464 23.1861 10.2894 -0.0456142 -25.802 0.130352 -1.33188e-009 8.75217e-006 -1.45022e-008 
-2.79953 94.7137 7.7798 -9.56868 -0.770515 -90.0881 -1.3783 -33.147 5.68315 -0.831496 29.6989 -11.5678 9.38281 -7.73962 -0.166116 0.0462048 0.000530889 0.662642 -4.95398 10.1053 0.0718901 3.94746 9.14883 -1.24127 3.79423 -1.331 -1.61984 -33.9191 7.48465 -15.0815 -44.3044 -15.8379 -32.0676 -7.88127 18.2886 -47.1569 22.0898 8.48433 -2.19825 44.7279 10.9098 17.147 19.7901 -46.4972 -10.1163 6.68332 29.187 5.69514 -6.91147 9.42182 3.69226 -5.24423 16.1615 7.39968 1.72545 24.8175 9.16536 -0.832626 -29.9077 0.00150549 -1.33188e-009 8.75217e-006 -1.45022e-008 
-7.38684 93.511 7.41468 -9.2259 -1.5394 -89.3701 -1.86194 -32.5844 3.42058 -0.880708 30.1812 -12.8087 8.95757 -8.27097 -0.127954 0.0462048 0.000530889 0.662642 -5.25636 8.33955 -0.0628079 4.94754 11.0653 -1.72608 3.01135 -2.31711 -1.75436 -34.2821 7.6175 -15.2377 -43.8985 -15.1992 -31.4841 -5.02369 20.1224 -44.1862 23.8862 8.19804 -3.02388 44.8536 10.9058 17.085 20.0024 -47.0283 -9.40571 6.57576 28.3997 5.63485 -8.46492 9.31676 3.41541 -5.41534 18.0845 5.96471 1.39259 26.7798 9.52292 -2.68169 -30.9479 -0.396667 -1.33188e-009 8.75217e-006 -1.45022e-008 
-12.2862 93.3375 7.40068 -7.48446 -0.629727 -88.0048 -1.05059 -31.8106 0.243899 -0.952398 30.4812 -14.5556 7.04692 -6.96322 -0.205082 0.0462048 0.000530889 0.662642 -1.26461 5.61162 -1.30204 4.14717 12.0176 -2.53708 1.76984 -2.31046 -1.59757 -34.3543 7.58007 -15.1133 -43.7526 -13.678 -27.9644 -3.88845 20.5838 -38.5699 24.7176 8.14751 -2.96213 44.4253 10.6605 16.8008 20.529 -47.3157 -10.3562 6.38463 27.8063 5.95813 -8.47489 9.32087 3.34588 -4.01083 17.8359 1.91816 0.878607 29.6917 11.7983 -7.02072 -29.1177 -1.20061 -1.33188e-009 8.75217e-006 -1.45022e-008 
-17.5812 93.7144 7.41129 -5.51916 1.48029 -86.9867 1.14467 -31.1298 -1.08237 -1.03255 31.4611 -16.17 4.21323 -4.34791 -0.270837 0.0462048 0.000530889 0.662642 4.71729 2.65873 -2.27024 2.40124 12.2038 -2.86723 0.690938 -1.7216 -1.37826 -34.0351 7.39742 -14.8153 -44.055 -10.7538 -22.9296 -5.75146 17.21 -31.3601 23.9171 8.42642 -1.86706 43.6892 10.3006 16.421 20.5074 -47.067 -12.8953 6.27363 27.4929 6.71112 -6.44751 9.47514 3.31641 -1.15425 16.0282 0.999526 0.841276 34.7007 11.5522 -12.9551 -23.5069 -1.70238 -1.33188e-009 8.75217e-006 -1.45022e-008 
-23.1322 94.0622 7.18899 -3.78693 3.02139 -87.025 3.48055 -31.367 -0.38598 -1.08131 34.5719 -16.7087 1.5587 -3.00766 -0.209065 0.0462048 0.000530889 0.662642 9.71884 -0.0339788 -2.28843 0.680161 12.337 -2.42786 0.161292 -1.31791 -0.970982 -33.6244 7.2248 -14.5784 -44.2596 -6.58666 -17.5924 -8.70482 9.97625 -24.625 21.9953 8.81797 -0.421307 43.4317 10.1498 16.2357 19.6572 -46.4442 -15.1943 6.34037 27.8431 6.96364 -3.8288 9.67648 3.14215 1.84215 12.2084 2.97224 0.895712 43.2286 10.257 -16.1417 -13.2056 -0.764087 -1.33188e-009 8.75217e-006 -1.45022e-008 
-28.5065 94.1422 6.79713 -2.65485 3.73303 -87.8279 5.09075 -31.6647 0.272483 -1.12555 39.0304 -16.044 -0.45258 -4.68506 -0.143265 0.0462048 0.000530889 0.662642 12.8877 -1.56909 -1.9315 -0.442441 12.503 -1.81734 0.061195 -1.66378 -0.0895876 -33.465 7.14263 -14.4471 -45.5704 -8.70247 -12.7072 -10.333 8.39943 -17.5182 19.8137 9.08204 0.492125 43.7301 10.2758 16.355 18.8061 -46.0195 -15.477 6.57421 29.0283 6.01456 -2.6575 9.7667 2.88481 4.30563 6.6145 5.24326 1.1554 54.4759 9.65359 -14.8533 -1.45003 0.782249 -1.33188e-009 8.75217e-006 -1.45022e-008 
-33.3723 94.1422 6.36778 -2.54057 4.20643 -88.2824 6.01052 -30.3452 -0.181428 -1.1637 42.5067 -15.2244 -1.54308 -8.34499 -0.183694 0.0462048 0.000530889 0.662642 14.7201 -1.39203 -1.86541 -0.541092 12.5954 -1.56122 0.165234 -2.72499 0.788507 -33.702 7.15045 -14.3599 -48.5996 -30.9199 -9.84375 -13.2428 28.0214 -6.2357 18.3111 9.17015 0.652319 44.0951 10.4857 16.6069 18.6854 -45.8934 -13.9789 6.81724 29.8556 5.00608 -3.70673 9.70098 2.52381 6.22618 0.315919 6.0296 1.79258 66.4017 10.5362 -12.0083 4.89228 1.28429 -1.33188e-009 8.75217e-006 -1.45022e-008 
-37.9666 94.8158 5.88595 -3.11435 4.17782 -88.17 6.07117 -26.6354 -1.28691 -1.14619 42.887 -14.623 -1.70463 -11.3804 -0.251219 0.0462048 0.000530889 0.662642 15.1505 -0.569567 -1.64388 -0.171419 12.7691 -1.24021 0.46924 -3.7769 0.615679 -34.0146 7.20191 -14.347 -49.7849 -47.6767 -8.53927 -17.0444 42.7909 5.70486 18.5999 9.17217 0.741536 44.415 10.6476 16.7815 18.9862 -45.9759 -12.636 6.71766 29.3116 6.01923 -6.31302 9.53407 2.25091 7.11552 -5.80141 5.75877 3.08173 76.3379 11.1948 -9.5538 4.30355 0.962091 -1.33188e-009 8.75217e-006 -1.45022e-008 
-42.3939 96.3889 5.37677 -3.50897 3.28311 -88.0011 5.13321 -21.9023 -2.40574 -1.07884 40.634 -13.9774 -1.21807 -12.2994 -0.251898 0.0462048 0.000530889 0.662642 14.6645 -0.250517 -0.876989 -0.519482 13.1213 -0.27579 1.02231 -3.91765 -0.754882 -33.8073 7.19364 -14.4193 -48.8354 -50.3375 -6.48698 -17.1411 43.8185 11.371 20.4801 9.19698 1.33934 44.79 10.753 16.8223 19.9385 -45.2619 -12.0836 6.17984 26.9561 9.39297 -9.13083 9.32426 2.57104 6.73273 -11.8405 5.22081 5.66695 82.4572 8.71261 -8.5845 0.982622 0.623575 -1.33188e-009 8.75217e-006 -1.45022e-008 
-46.5786 98.5681 4.96843 -3.55483 1.74484 -88.0508 3.35028 -17.3651 -3.64322 -0.977804 37.3455 -12.4578 0.0541047 -10.9388 -0.192456 0.0462048 0.000530889 0.662642 13.9505 -0.156763 -0.0306843 -1.75999 13.1804 1.00627 1.67878 -2.83453 -2.21012 -32.9651 7.03843 -14.4127 -46.6469 -52.0011 -2.83921 -16.8492 43.4266 13.0669 22.0092 9.26238 2.0075 44.9533 10.7532 16.753 22.4229 -42.8264 -10.926 5.53403 23.3798 13.3333 -10.5513 9.15318 3.4848 5.26117 -17.7275 4.61904 7.67612 84.5279 5.78632 -8.74889 -0.980658 0.50195 -1.33188e-009 8.75217e-006 -1.45022e-008 
